<svg version="1.1" id="Layer_1" xmlns="http://www.w3.org/2000/svg" xmlns:xlink="http://www.w3.org/1999/xlink" x="0px" y="0px"
	 width="100%" viewBox="0 0 500 500" enable-background="new 0 0 500 500" xml:space="preserve">
<path fill="#000000" opacity="1.000000" stroke="none" 
	d="
M228.000000,501.000000 
	C152.000015,501.000000 76.500038,501.000000 1.000041,501.000000 
	C1.000027,334.333405 1.000027,167.666779 1.000013,1.000130 
	C167.666565,1.000087 334.333130,1.000087 500.999756,1.000043 
	C500.999847,167.666534 500.999847,334.333069 500.999939,500.999817 
	C410.166656,501.000000 319.333344,501.000000 228.000000,501.000000 
M280.936768,165.225327 
	C271.122742,147.685379 261.308746,130.145432 251.072388,111.850662 
	C248.681442,115.694984 246.929276,118.278908 245.409256,120.992874 
	C232.598450,143.866470 219.797943,166.745987 207.061264,189.660919 
	C199.620026,203.048721 192.301132,216.504532 184.361679,230.307739 
	C178.641266,240.535233 172.920837,250.762711 166.608780,262.047974 
	C168.795059,261.572296 169.434540,261.518646 170.008408,261.295929 
	C189.699646,253.653931 209.444870,246.143753 229.003998,238.176834 
	C231.855591,237.015350 234.361908,234.005402 236.083069,231.258652 
	C241.066574,223.305588 245.568466,215.050720 250.633820,206.264893 
	C252.038818,208.455902 253.295258,210.142181 254.262436,211.980637 
	C256.244598,215.748505 258.830872,218.367477 263.027588,220.129272 
	C278.823608,226.760513 294.391144,233.935074 310.062775,240.864212 
	C315.342224,243.198471 320.676819,245.407974 325.986206,247.674515 
	C326.263519,247.272049 326.540833,246.869583 326.818115,246.467117 
	C318.081757,231.128357 309.345398,215.789597 300.239807,199.837616 
	C293.853119,188.534073 287.466461,177.230545 280.936768,165.225327 
M301.471039,255.145233 
	C290.174774,250.155258 278.888641,245.142212 267.576599,240.188248 
	C263.803131,238.535706 259.504913,235.190659 256.285004,235.991287 
	C253.168732,236.766129 251.116272,241.867065 248.626678,245.091125 
	C247.621826,246.392426 246.817627,247.866135 245.713531,249.070068 
	C242.216919,252.882858 243.309860,256.249451 245.926834,260.145050 
	C249.985153,266.186188 253.206802,272.794464 257.336884,278.780212 
	C259.368042,281.723969 262.338898,284.315704 265.424805,286.165100 
	C269.917786,288.857788 274.879242,290.779175 279.674683,292.955078 
	C299.370361,301.891663 319.102814,310.747833 338.753815,319.781372 
	C341.370056,320.984009 342.788696,320.711182 344.598511,318.432159 
	C347.846252,314.342377 351.708649,310.737701 354.912750,306.618103 
	C355.812988,305.460663 355.988434,302.893707 355.339050,301.520569 
	C352.234833,294.956848 348.016907,288.840637 345.563446,282.069489 
	C342.841827,274.558105 337.524170,270.941010 330.723389,268.110138 
	C321.112549,264.109558 311.680969,259.678223 301.471039,255.145233 
M188.450775,272.111633 
	C177.974228,276.188782 167.479965,280.221588 157.041962,284.395111 
	C155.621582,284.963043 154.041641,285.972382 153.294220,287.228638 
	C150.843750,291.347443 148.732513,295.668823 146.512283,299.923553 
	C145.274704,302.295166 145.097427,304.356934 147.241592,306.597870 
	C150.992020,310.517578 154.718811,314.538452 157.852707,318.945587 
	C160.531479,322.712585 163.218933,322.874023 167.085815,321.185333 
	C188.290771,311.924988 209.568542,302.831604 230.800552,293.632874 
	C235.250366,291.705017 239.613022,289.575989 244.625488,287.257660 
	C238.399948,277.554108 232.693756,268.506775 226.729263,259.633087 
	C226.211304,258.862457 223.798767,258.715302 222.590561,259.159851 
	C211.411545,263.273285 200.303848,267.580566 188.450775,272.111633 
z"/>
<path fill="#2ABAD3" opacity="1.000000" stroke="none" 
	d="
M301.821899,255.288116 
	C311.680969,259.678223 321.112549,264.109558 330.723389,268.110138 
	C337.524170,270.941010 342.841827,274.558105 345.563446,282.069489 
	C348.016907,288.840637 352.234833,294.956848 355.339050,301.520569 
	C355.988434,302.893707 355.812988,305.460663 354.912750,306.618103 
	C351.708649,310.737701 347.846252,314.342377 344.598511,318.432159 
	C342.788696,320.711182 341.370056,320.984009 338.753815,319.781372 
	C319.102814,310.747833 299.370361,301.891663 279.674683,292.955078 
	C274.879242,290.779175 269.917786,288.857788 265.424805,286.165100 
	C262.338898,284.315704 259.368042,281.723969 257.336884,278.780212 
	C253.206802,272.794464 249.985153,266.186188 245.926834,260.145050 
	C243.309860,256.249451 242.216919,252.882858 245.713531,249.070068 
	C246.817627,247.866135 247.621826,246.392426 248.626678,245.091125 
	C251.116272,241.867065 253.168732,236.766129 256.285004,235.991287 
	C259.504913,235.190659 263.803131,238.535706 267.576599,240.188248 
	C278.888641,245.142212 290.174774,250.155258 301.821899,255.288116 
z"/>
<path fill="#2BBAD2" opacity="1.000000" stroke="none" 
	d="
M188.813110,271.971558 
	C200.303848,267.580566 211.411545,263.273285 222.590561,259.159851 
	C223.798767,258.715302 226.211304,258.862457 226.729263,259.633087 
	C232.693756,268.506775 238.399948,277.554108 244.625488,287.257660 
	C239.613022,289.575989 235.250366,291.705017 230.800552,293.632874 
	C209.568542,302.831604 188.290771,311.924988 167.085815,321.185333 
	C163.218933,322.874023 160.531479,322.712585 157.852707,318.945587 
	C154.718811,314.538452 150.992020,310.517578 147.241592,306.597870 
	C145.097427,304.356934 145.274704,302.295166 146.512283,299.923553 
	C148.732513,295.668823 150.843750,291.347443 153.294220,287.228638 
	C154.041641,285.972382 155.621582,284.963043 157.041962,284.395111 
	C167.479965,280.221588 177.974228,276.188782 188.813110,271.971558 
z"/>
<path fill="#3AA3B5" opacity="1.000000" stroke="none" 
	d="
M300.609039,200.450836 
	C309.345398,215.789597 318.081757,231.128357 326.818115,246.467117 
	C326.540833,246.869583 326.263519,247.272049 325.986206,247.674515 
	C320.676819,245.407974 315.342224,243.198471 310.062775,240.864212 
	C294.391144,233.935074 278.823608,226.760513 263.027588,220.129272 
	C258.830872,218.367477 256.244598,215.748505 254.262436,211.980637 
	C253.295258,210.142181 252.038818,208.455902 250.633820,206.264893 
	C245.568466,215.050720 241.066574,223.305588 236.083069,231.258652 
	C234.361908,234.005402 231.855591,237.015350 229.003998,238.176834 
	C209.444870,246.143753 189.699646,253.653931 170.008408,261.295929 
	C169.434540,261.518646 168.795059,261.572296 166.608780,262.047974 
	C172.920837,250.762711 178.641266,240.535233 184.746979,230.214447 
	C185.132263,230.121140 185.337433,230.312439 185.257614,230.641815 
	C185.099167,231.647141 185.020523,232.323105 184.783661,233.310242 
	C180.420868,241.299133 176.216278,248.976883 172.011673,256.654633 
	C172.455719,257.088928 172.899780,257.523254 173.343826,257.957581 
	C192.578796,250.337036 211.813766,242.716476 231.345184,234.906998 
	C232.412598,233.663483 233.299942,232.674347 233.935730,231.543732 
	C238.248932,223.873642 242.429810,216.127625 246.850891,208.520920 
	C247.772568,206.935120 249.934982,204.506760 250.798309,204.778381 
	C252.560226,205.332718 254.601791,207.216660 255.155914,208.983322 
	C256.953339,214.713654 261.240875,217.417053 266.246735,219.613434 
	C282.654938,226.812759 299.037354,234.070953 315.455353,241.247803 
	C317.182831,242.002914 319.080414,242.368835 322.434143,243.376572 
	C321.037964,240.595566 320.372650,239.196899 319.644623,237.831696 
	C313.097565,225.554779 306.539551,213.283691 300.141113,200.871185 
	C300.297455,200.731476 300.609039,200.450836 300.609039,200.450836 
z"/>
<path fill="#3AA3B5" opacity="1.000000" stroke="none" 
	d="
M185.029724,230.025436 
	C192.301132,216.504532 199.620026,203.048721 207.061264,189.660919 
	C219.797943,166.745987 232.598450,143.866470 245.409256,120.992874 
	C246.929276,118.278908 248.681442,115.694984 251.072388,111.850662 
	C261.308746,130.145432 271.122742,147.685379 280.905823,165.670959 
	C280.874878,166.116577 280.670105,166.306290 280.385712,166.126694 
	C278.959076,164.798584 277.488617,163.832993 276.729523,162.470932 
	C272.755920,155.340927 268.962708,148.110397 265.025757,140.596863 
	C264.027252,139.161209 263.109741,138.043503 262.133301,136.596268 
	C261.413452,135.443359 260.752533,134.619965 260.079590,133.431305 
	C258.086060,128.915451 256.250000,124.686920 254.078705,120.638176 
	C252.225967,117.183456 249.781876,117.018669 247.802338,120.423561 
	C245.495697,124.391106 243.812180,128.720932 241.587616,133.100082 
	C239.506729,136.976501 237.905823,140.768860 235.844330,144.291687 
	C231.001541,152.567368 225.790100,160.628738 221.007492,168.937820 
	C216.459183,176.839859 212.265930,184.946274 207.711884,193.235107 
	C205.642075,196.641510 203.776932,199.775650 201.679810,203.165634 
	C197.273895,211.068878 193.158524,218.749329 188.876450,226.335693 
	C188.023987,227.845978 186.533646,228.996201 185.337433,230.312439 
	C185.337433,230.312439 185.132263,230.121140 185.029724,230.025436 
z"/>
<path fill="#3AA3B5" opacity="1.000000" stroke="none" 
	d="
M280.977325,166.021790 
	C287.466461,177.230545 293.853119,188.534073 300.424438,200.144226 
	C300.609039,200.450836 300.297455,200.731476 299.881622,200.659866 
	C296.817169,196.429077 294.279388,192.194000 291.494995,188.127777 
	C286.855072,181.351730 282.526276,174.450424 280.670105,166.306290 
	C280.670105,166.306290 280.874878,166.116577 280.977325,166.021790 
z"/>
<path fill="#27BDD7" opacity="1.000000" stroke="none" 
	d="
M280.385712,166.126694 
	C282.526276,174.450424 286.855072,181.351730 291.494995,188.127777 
	C294.279388,192.194000 296.817169,196.429077 299.725281,200.799576 
	C306.539551,213.283691 313.097565,225.554779 319.644623,237.831696 
	C320.372650,239.196899 321.037964,240.595566 322.434143,243.376572 
	C319.080414,242.368835 317.182831,242.002914 315.455353,241.247803 
	C299.037354,234.070953 282.654938,226.812759 266.246735,219.613434 
	C261.240875,217.417053 256.953339,214.713654 255.155914,208.983322 
	C254.601791,207.216660 252.560226,205.332718 250.798309,204.778381 
	C249.934982,204.506760 247.772568,206.935120 246.850891,208.520920 
	C242.429810,216.127625 238.248932,223.873642 233.935730,231.543732 
	C233.299942,232.674347 232.412598,233.663483 231.123642,234.644196 
	C229.694504,233.242874 228.783371,231.915436 228.617538,231.673828 
	C223.970764,232.940857 219.964172,234.033325 215.957596,235.125793 
	C215.563034,234.529083 215.168472,233.932373 214.773911,233.335663 
	C215.827545,231.906693 216.603333,230.071075 217.987274,229.125519 
	C222.030106,226.363312 220.248444,224.197708 217.504822,222.213181 
	C212.567963,218.642197 207.309647,219.844238 203.301971,225.380615 
	C201.674850,224.621124 200.022598,223.849899 198.798401,223.278488 
	C197.960403,226.158173 197.986343,229.235794 196.467834,230.624100 
	C193.362579,233.463089 189.538071,235.978302 184.941879,232.999069 
	C185.020523,232.323105 185.099167,231.647141 185.257629,230.641815 
	C186.533646,228.996201 188.023987,227.845978 188.876450,226.335693 
	C193.158524,218.749329 197.273895,211.068878 201.898682,203.441605 
	C203.281677,204.600113 204.213821,205.738510 205.496109,207.304489 
	C206.954956,203.756577 207.652588,200.821609 209.247086,198.503601 
	C211.130722,195.765259 210.278809,194.347824 207.916550,192.962830 
	C212.265930,184.946274 216.459183,176.839859 221.007492,168.937820 
	C225.790100,160.628738 231.001541,152.567368 235.844330,144.291687 
	C237.905823,140.768860 239.506729,136.976501 241.904373,133.266266 
	C244.073364,134.397141 245.794495,135.422607 247.204559,136.772903 
	C249.450500,138.923645 251.369629,141.420074 253.650040,143.529144 
	C255.826340,145.541962 258.287689,147.246536 260.460419,148.957977 
	C261.663879,146.874725 263.385345,143.894760 265.106812,140.914810 
	C268.962708,148.110397 272.755920,155.340927 276.729523,162.470932 
	C277.488617,163.832993 278.959076,164.798584 280.385712,166.126694 
M204.385605,214.238281 
	C205.064102,213.824188 205.996994,213.563293 206.360565,212.959564 
	C206.885513,212.087830 207.045502,210.975800 207.224899,209.942612 
	C207.247238,209.813934 206.264755,209.252869 206.045456,209.385223 
	C205.141296,209.930923 204.073853,210.517410 203.610077,211.380905 
	C203.252548,212.046616 203.706070,213.147919 204.385605,214.238281 
z"/>
<path fill="#27BCD5" opacity="1.000000" stroke="none" 
	d="
M184.783661,233.310242 
	C189.538071,235.978302 193.362579,233.463089 196.467834,230.624100 
	C197.986343,229.235794 197.960403,226.158173 198.798401,223.278488 
	C200.022598,223.849899 201.674850,224.621124 203.301971,225.380615 
	C207.309647,219.844238 212.567963,218.642197 217.504822,222.213181 
	C220.248444,224.197708 222.030106,226.363312 217.987274,229.125519 
	C216.603333,230.071075 215.827545,231.906693 214.773911,233.335663 
	C215.168472,233.932373 215.563034,234.529083 215.957596,235.125793 
	C219.964172,234.033325 223.970764,232.940857 228.617538,231.673828 
	C228.783371,231.915436 229.694504,233.242874 230.827194,234.833130 
	C211.813766,242.716476 192.578796,250.337036 173.343826,257.957581 
	C172.899780,257.523254 172.455719,257.088928 172.011673,256.654633 
	C176.216278,248.976883 180.420868,241.299133 184.783661,233.310242 
z"/>
<path fill="#27BCD5" opacity="1.000000" stroke="none" 
	d="
M265.025757,140.596863 
	C263.385345,143.894760 261.663879,146.874725 260.460419,148.957977 
	C258.287689,147.246536 255.826340,145.541962 253.650040,143.529144 
	C251.369629,141.420074 249.450500,138.923645 247.204559,136.772903 
	C245.794495,135.422607 244.073364,134.397141 242.175049,133.059738 
	C243.812180,128.720932 245.495697,124.391106 247.802338,120.423561 
	C249.781876,117.018669 252.225967,117.183456 254.078705,120.638176 
	C256.250000,124.686920 258.086060,128.915451 260.088013,133.789337 
	C260.803070,135.317032 261.497681,136.121414 262.192261,136.925797 
	C263.109741,138.043503 264.027252,139.161209 265.025757,140.596863 
z"/>
<path fill="#27BCD5" opacity="1.000000" stroke="none" 
	d="
M207.711884,193.235107 
	C210.278809,194.347824 211.130722,195.765259 209.247086,198.503601 
	C207.652588,200.821609 206.954956,203.756577 205.496109,207.304489 
	C204.213821,205.738510 203.281677,204.600113 202.130661,203.185760 
	C203.776932,199.775650 205.642075,196.641510 207.711884,193.235107 
z"/>
<path fill="#27BDD7" opacity="1.000000" stroke="none" 
	d="
M262.133301,136.596268 
	C261.497681,136.121414 260.803070,135.317032 260.100037,134.154617 
	C260.752533,134.619965 261.413452,135.443359 262.133301,136.596268 
z"/>
<path fill="#27BCD5" opacity="1.000000" stroke="none" 
	d="
M204.092285,214.146912 
	C203.706070,213.147919 203.252548,212.046616 203.610077,211.380905 
	C204.073853,210.517410 205.141296,209.930923 206.045456,209.385223 
	C206.264755,209.252869 207.247238,209.813934 207.224899,209.942612 
	C207.045502,210.975800 206.885513,212.087830 206.360565,212.959564 
	C205.996994,213.563293 205.064102,213.824188 204.092285,214.146912 
z"/>
</svg>